<?xml version="1.0" encoding="UTF-8"?>
<svg id="Foreground" xmlns="http://www.w3.org/2000/svg" viewBox="0 0 708.66 708.66">
  <defs>
    <style>
      .cls-1, .cls-2 {
        fill: #00aad0;
      }

      .cls-1, .cls-2, .cls-3, .cls-4 {
        stroke-width: 0px;
      }

      .cls-2, .cls-3 {
        fill-rule: evenodd;
      }

      .cls-3, .cls-4 {
        fill: #fff;
      }
    </style>
  </defs>
  <circle class="cls-1" cx="354.33" cy="354.33" r="354.33"/>
  <g>
    <path class="cls-4" d="M553.51,419.51l-92.11,122.42h116.11v51.11h-215.88l148.07-197.67c11.03-14.96,18.32-31.37,18.32-50.76,0-33.16-23.47-56.25-50.4-56.25-39.77,0-50.7,36.94-51.34,68.54h-49.49c1.17-58.11,30.84-119.65,99.66-119.65,54.07,0,101.05,44.58,101.05,106.92,0,28.52-7.46,53.78-24,75.34Z"/>
    <path class="cls-2" d="M385.23,427.63h50.28v-72.5c0-94.08-55.86-130.78-112.27-130.78-32.4,0-64.79,17.35-79.88,48.71h-1.12V95.93h-50.27v484.08h50.27v-195.51c0-66.06,28.49-104.1,75.41-104.1,49.7,0,67.58,45.38,67.58,97.43v49.81Z"/>
    <path class="cls-3" d="M362.93,546.71l50.28-66.67v-112.36c0-94.08-55.86-130.78-112.27-130.78-32.39,0-64.79,17.35-79.88,48.71h-1.12V85.43h-50.27v507.12h50.27v-195.51c0-66.06,28.49-104.1,75.41-104.1,49.7,0,67.58,45.38,67.58,97.43v156.33Z"/>
  </g>
</svg>